<?xml version="1.0" encoding="UTF-8"?> <svg xmlns="http://www.w3.org/2000/svg" width="24" height="25" viewBox="0 0 24 25" fill="none"><mask id="mask0_2395_6086" style="mask-type:alpha" maskUnits="userSpaceOnUse" x="0" y="0" width="24" height="25"><rect y="0.25" width="24" height="24" fill="#D9D9D9"></rect></mask><g mask="url(#mask0_2395_6086)"><path d="M4.30775 19.75C3.81058 19.75 3.385 19.573 3.031 19.219C2.677 18.865 2.5 18.4394 2.5 17.9423V6.55775C2.5 6.06058 2.677 5.635 3.031 5.281C3.385 4.927 3.81058 4.75 4.30775 4.75H18.75C18.9625 4.75 19.1406 4.82192 19.2843 4.96575C19.4281 5.10958 19.5 5.28775 19.5 5.50025C19.5 5.71292 19.4281 5.891 19.2843 6.0345C19.1406 6.17817 18.9625 6.25 18.75 6.25H4.30775C4.21792 6.25 4.14417 6.27883 4.0865 6.3365C4.02883 6.39417 4 6.46792 4 6.55775V17.9423C4 18.0321 4.02883 18.1058 4.0865 18.1635C4.14417 18.2212 4.21792 18.25 4.30775 18.25H6.1155C6.328 18.25 6.50608 18.3219 6.64975 18.4658C6.79342 18.6096 6.86525 18.7878 6.86525 19.0003C6.86525 19.2129 6.79342 19.391 6.64975 19.5345C6.50608 19.6782 6.328 19.75 6.1155 19.75H4.30775ZM10.9423 17.5577C11.3589 17.5577 11.7131 17.4119 12.0048 17.1202C12.2964 16.8286 12.4423 16.4744 12.4423 16.0577C12.4423 15.6411 12.2964 15.2869 12.0048 14.9952C11.7131 14.7036 11.3589 14.5577 10.9423 14.5577C10.5256 14.5577 10.1714 14.7036 9.87975 14.9952C9.58808 15.2869 9.44225 15.6411 9.44225 16.0577C9.44225 16.4744 9.58808 16.8286 9.87975 17.1202C10.1714 17.4119 10.5256 17.5577 10.9423 17.5577ZM20.596 19.75H15.923C15.667 19.75 15.4523 19.6633 15.279 19.49C15.1058 19.3168 15.0193 19.1022 15.0193 18.846V10.1538C15.0193 9.89775 15.1058 9.68308 15.279 9.50975C15.4523 9.33658 15.667 9.25 15.923 9.25H20.596C20.8522 9.25 21.0668 9.33658 21.24 9.50975C21.4133 9.68308 21.5 9.89775 21.5 10.1538V18.846C21.5 19.1022 21.4133 19.3168 21.24 19.49C21.0668 19.6633 20.8522 19.75 20.596 19.75ZM16.5193 18.25H20V10.75H16.5193V18.25ZM9.25 18.842V18.1385C8.93983 17.8872 8.69558 17.5811 8.51725 17.2203C8.33908 16.8593 8.25 16.4717 8.25 16.0577C8.25 15.6436 8.33908 15.2561 8.51725 14.8953C8.69558 14.5343 8.93983 14.2282 9.25 13.977V13.2732C9.25 13.0161 9.33658 12.8005 9.50975 12.6265C9.68308 12.4525 9.89775 12.3655 10.1537 12.3655H11.7308C11.9869 12.3655 12.2016 12.4525 12.3748 12.6265C12.5479 12.8005 12.6345 13.0161 12.6345 13.2732V13.977C12.9448 14.2282 13.1891 14.5343 13.3673 14.8953C13.5454 15.2561 13.6345 15.6436 13.6345 16.0577C13.6345 16.4717 13.5454 16.8593 13.3673 17.2203C13.1891 17.5811 12.9448 17.8872 12.6345 18.1385V18.842C12.6345 19.0993 12.5479 19.315 12.3748 19.489C12.2016 19.663 11.9869 19.75 11.7308 19.75H10.1537C9.89775 19.75 9.68308 19.663 9.50975 19.489C9.33658 19.315 9.25 19.0993 9.25 18.842Z" fill="#002052"></path></g></svg> 