<?xml version="1.0" encoding="UTF-8"?> <svg xmlns="http://www.w3.org/2000/svg" width="25" height="26" viewBox="0 0 25 26" fill="none"><g id="adf_scanner"><mask id="mask0_1093_6468" style="mask-type:alpha" maskUnits="userSpaceOnUse" x="0" y="0" width="25" height="26"><rect id="Bounding box" y="0.5" width="25" height="25" fill="#D9D9D9"></rect></mask><g mask="url(#mask0_1093_6468)"><path id="adf_scanner_2" d="M2.9043 19.6842V15.699C2.9043 15.0157 3.12522 14.4531 3.56706 14.0112C4.0089 13.5696 4.57148 13.3487 5.25482 13.3487H6.79857V6.43624C6.79857 6.07009 6.92739 5.75707 7.18503 5.49717C7.44267 5.23728 7.75673 5.10733 8.12721 5.10733H16.872C17.2425 5.10733 17.5566 5.23728 17.8142 5.49717C18.0718 5.75707 18.2007 6.07009 18.2007 6.43624V13.3487H19.7444C20.4277 13.3487 20.9903 13.5696 21.4322 14.0112C21.874 14.4531 22.0949 15.0157 22.0949 15.699V19.6842C22.0949 20.0503 21.965 20.3632 21.7051 20.623C21.4452 20.8829 21.1322 21.0128 20.7663 21.0128H4.23294C3.86697 21.0128 3.55404 20.8829 3.29414 20.623C3.03424 20.3632 2.9043 20.0503 2.9043 19.6842ZM8.10716 13.3487H16.8921V6.41618H8.10716V13.3487ZM4.21315 19.7042H20.7861V15.699C20.7861 15.378 20.6928 15.1242 20.5061 14.9375C20.3193 14.7507 20.0654 14.6573 19.7444 14.6573H5.25482C4.93381 14.6573 4.6799 14.7507 4.4931 14.9375C4.30647 15.1242 4.21315 15.378 4.21315 15.699V19.7042ZM18.7954 17.2615C19.0512 17.2615 19.2671 17.1736 19.4431 16.9977C19.6191 16.8218 19.7072 16.6038 19.7072 16.3435C19.7072 16.088 19.6181 15.8721 19.44 15.6959C19.2619 15.5198 19.0449 15.4318 18.7892 15.4318C18.5291 15.4318 18.3122 15.5209 18.1384 15.699C17.9645 15.8771 17.8775 16.0941 17.8775 16.3498C17.8775 16.6098 17.9654 16.8269 18.1413 17.0008C18.3171 17.1746 18.5352 17.2615 18.7954 17.2615Z" fill="#002052"></path></g></g></svg> 