<?xml version="1.0" encoding="UTF-8"?> <svg xmlns="http://www.w3.org/2000/svg" width="25" height="26" viewBox="0 0 25 26" fill="none"><g id="bigtop_updates"><mask id="mask0_1093_6577" style="mask-type:alpha" maskUnits="userSpaceOnUse" x="0" y="0" width="25" height="26"><rect id="Bounding box" y="0.5" width="25" height="25" fill="#D9D9D9"></rect></mask><g mask="url(#mask0_1093_6577)"><path id="bigtop_updates_2" d="M3.62865 10.9168C3.62865 11.9972 3.81623 13.032 4.19141 14.0213C4.56641 15.0103 5.10642 15.9117 5.81146 16.7254C5.92951 16.8506 5.99306 16.9945 6.00208 17.1572C6.01129 17.3199 5.95512 17.462 5.83359 17.5835C5.71207 17.705 5.57205 17.7544 5.41354 17.7317C5.25503 17.7089 5.11684 17.6328 4.99896 17.5033C4.19184 16.597 3.57092 15.5771 3.1362 14.4434C2.70165 13.3099 2.48438 12.1344 2.48438 10.9168C2.48438 9.69929 2.70165 8.52377 3.1362 7.39026C3.57092 6.25658 4.19184 5.23436 4.99896 4.3236C5.11684 4.1986 5.25503 4.12646 5.41354 4.10719C5.57205 4.08809 5.71207 4.13931 5.83359 4.26083C5.95512 4.38236 6.01129 4.52273 6.00208 4.68193C5.99306 4.84096 5.92951 4.98306 5.81146 5.10823C5.10642 5.92195 4.56641 6.82333 4.19141 7.8124C3.81623 8.80163 3.62865 9.83644 3.62865 10.9168ZM7.06615 10.9168C7.06615 11.5436 7.16432 12.1456 7.36068 12.7228C7.55703 13.2999 7.85043 13.8326 8.24089 14.321C8.34818 14.446 8.40521 14.5896 8.41198 14.7517C8.41892 14.9137 8.36163 15.0555 8.2401 15.177C8.11858 15.2985 7.98116 15.3542 7.82786 15.3439C7.67439 15.3337 7.5441 15.266 7.43698 15.1408C6.94948 14.5528 6.57509 13.8968 6.3138 13.1728C6.05252 12.4487 5.92188 11.6967 5.92188 10.9168C5.92188 10.137 6.05252 9.38497 6.3138 8.66084C6.57509 7.93688 6.94948 7.28089 7.43698 6.69287C7.5441 6.56769 7.67439 6.49825 7.82786 6.48453C7.98116 6.47064 8.11858 6.52446 8.2401 6.64599C8.36163 6.76752 8.41892 6.90927 8.41198 7.07125C8.40521 7.23341 8.34818 7.37698 8.24089 7.50198C7.85043 7.98584 7.55703 8.51926 7.36068 9.10224C7.16432 9.68523 7.06615 10.2901 7.06615 10.9168ZM11.8458 21.2601V12.9947C11.3833 12.8657 11.0122 12.6078 10.7326 12.221C10.4527 11.834 10.3128 11.3993 10.3128 10.9168C10.3128 10.3075 10.525 9.79052 10.9495 9.36604C11.374 8.94157 11.8909 8.72933 12.5003 8.72933C13.1096 8.72933 13.6266 8.94157 14.051 9.36604C14.4755 9.79052 14.6878 10.3075 14.6878 10.9168C14.6878 11.3993 14.5478 11.834 14.268 12.221C13.9883 12.6078 13.6172 12.8657 13.1547 12.9947V21.2601C13.1547 21.4488 13.0928 21.605 12.969 21.7288C12.8452 21.8526 12.689 21.9145 12.5003 21.9145C12.3115 21.9145 12.1553 21.8526 12.0315 21.7288C11.9077 21.605 11.8458 21.4488 11.8458 21.2601ZM17.9344 10.9168C17.9344 10.2901 17.8362 9.68809 17.6398 9.11084C17.4435 8.53375 17.1501 8.00103 16.7596 7.51266C16.6523 7.38766 16.5953 7.24408 16.5885 7.08193C16.5816 6.91995 16.6389 6.7782 16.7604 6.65667C16.8819 6.53514 17.0194 6.4795 17.1727 6.48974C17.3261 6.49998 17.4587 6.56769 17.5703 6.69287C18.0533 7.28089 18.4254 7.93688 18.6867 8.66084C18.948 9.38497 19.0786 10.137 19.0786 10.9168C19.0786 11.6967 18.948 12.4487 18.6867 13.1728C18.4254 13.8968 18.0533 14.5528 17.5703 15.1408C17.4587 15.266 17.328 15.3337 17.1781 15.3439C17.0283 15.3542 16.8926 15.2985 16.7711 15.177C16.6496 15.0555 16.5905 14.9137 16.5938 14.7517C16.5971 14.5896 16.6523 14.446 16.7596 14.321C17.1501 13.8326 17.4435 13.2999 17.6398 12.7228C17.8362 12.1456 17.9344 11.5436 17.9344 10.9168ZM21.3719 10.9168C21.3719 9.83644 21.1843 8.80163 20.8091 7.8124C20.4341 6.82333 19.8941 5.92195 19.1891 5.10823C19.071 4.98306 19.0075 4.83913 18.9984 4.67646C18.9892 4.51379 19.0454 4.37169 19.1669 4.25016C19.2885 4.12863 19.4285 4.07924 19.587 4.10198C19.7455 4.12472 19.8859 4.1986 20.0083 4.3236C20.8109 5.23436 21.4296 6.25658 21.8643 7.39026C22.2989 8.52377 22.5161 9.69929 22.5161 10.9168C22.5161 12.1344 22.2989 13.3099 21.8643 14.4434C21.4296 15.5771 20.8109 16.597 20.0083 17.5033C19.8859 17.6328 19.7455 17.7072 19.587 17.7265C19.4285 17.7456 19.2885 17.6943 19.1669 17.5728C19.0454 17.4513 18.9892 17.3109 18.9984 17.1517C19.0075 16.9927 19.071 16.8506 19.1891 16.7254C19.8941 15.9117 20.4341 15.0103 20.8091 14.0213C21.1843 13.032 21.3719 11.9972 21.3719 10.9168Z" fill="#002052"></path></g></g></svg> 