<?xml version="1.0" encoding="UTF-8"?> <svg xmlns="http://www.w3.org/2000/svg" id="Capa_1" data-name="Capa 1" viewBox="0 0 701.37 244.1"><defs><style>.cls-1{fill:#fff;}</style></defs><rect x="38.55" y="53.93" width="136.23" height="136.23" rx="35.94"></rect><path class="cls-1" d="M107.69,141.32a20.29,20.29,0,1,1,0-40.58V80.45A40.58,40.58,0,1,0,148.27,121H128A20.28,20.28,0,0,1,107.69,141.32Z"></path><path d="M579.49,153.68a6.67,6.67,0,1,0-6.68-6.66A6.68,6.68,0,0,0,579.49,153.68ZM574.57,147a4.93,4.93,0,1,1,4.92,4.92A4.93,4.93,0,0,1,574.57,147Z"></path><path d="M582.13,150h-1.52l-1.17-2h-.68v2h-1.42v-6.21h2.49A2.12,2.12,0,0,1,582,145.9a1.93,1.93,0,0,1-.32,1,2.15,2.15,0,0,1-.83.75Zm-2.3-4.88h-1.07v1.6h1.07a.67.67,0,0,0,.5-.23.88.88,0,0,0,0-1.14A.67.67,0,0,0,579.83,145.1Z"></path><path d="M360.79,150.39A14.54,14.54,0,0,0,367,138a14.08,14.08,0,0,0-1.6-7.3,13,13,0,0,0-4.88-5.06,31.91,31.91,0,0,0-6-2.93,67.23,67.23,0,0,0-6.72-1.85,32,32,0,0,1-7.68-3,4.71,4.71,0,0,1-2.64-4.12,4.93,4.93,0,0,1,2.24-4.29,10.08,10.08,0,0,1,5.78-1.53q7.59,0,10.33,6.25l10-5.59a20.46,20.46,0,0,0-8.2-8.42,24.16,24.16,0,0,0-12.13-3,22.49,22.49,0,0,0-14.4,4.62,14.9,14.9,0,0,0-5.72,12.21,13.7,13.7,0,0,0,1.6,7.14,12.61,12.61,0,0,0,4.94,4.94,39.93,39.93,0,0,0,5.93,2.87,66.49,66.49,0,0,0,6.65,2c7,1.67,10.44,4,10.44,7,0,4.12-3.1,6.17-9.33,6.17s-10.38-2.64-12.19-7.92L323.1,142a19.92,19.92,0,0,0,8.46,9.44,27.12,27.12,0,0,0,14,3.41Q354.63,154.88,360.79,150.39Z"></path><path d="M389.71,124c0-5.18,1.23-9.12,3.73-11.81s5.9-4,10.23-4q5.71,0,9,3.29t3.3,9.47v32.52h11.87V119.72q0-10.45-5.77-16.54t-15.33-6.12c-7.7,0-13.38,2.84-17,8.47v-29H377.84v76.93h11.87Z"></path><path d="M468.5,154.88q16.06,0,24.08-12l-9.78-5.72Q478,144,468.63,144A19.12,19.12,0,0,1,457,140.6a15.32,15.32,0,0,1-6-9.57h43.73a30.75,30.75,0,0,0,.45-4.93,29.22,29.22,0,0,0-7.81-20.57,25.79,25.79,0,0,0-19.78-8.47q-12.86,0-20.89,8.36A28.34,28.34,0,0,0,438.62,126q0,12.54,8.23,20.78T468.5,154.88Zm-12-43.42a16.79,16.79,0,0,1,11-3.61,15.55,15.55,0,0,1,10.27,3.51,16.44,16.44,0,0,1,5.45,10H450.93A16.38,16.38,0,0,1,456.53,111.46Z"></path><path d="M237.8,134.37a17.15,17.15,0,1,1,0-16.87l10.08-5.86a28.86,28.86,0,1,0,.08,28.5Z"></path><path d="M300.25,98.51v6.37a27,27,0,0,0-18.87-7.82c-.09,0-.17,0-.26,0s-.16,0-.25,0c-15,0-27.23,12.93-27.23,28.88s12.19,28.88,27.23,28.88l.25,0,.26,0A27,27,0,0,0,300.25,147v6.45h11.87V98.51Zm0,27.43a17.37,17.37,0,1,1-17.37-17.36A17.37,17.37,0,0,1,300.24,125.94Z"></path><path d="M550,98.51v6.37a27,27,0,0,0-18.87-7.82c-.09,0-.17,0-.26,0s-.17,0-.25,0c-15,0-27.23,12.93-27.23,28.88s12.19,28.88,27.23,28.88l.25,0,.26,0A27,27,0,0,0,550,147v6.44h11.86V98.51Zm0,27.43a17.36,17.36,0,1,1-17.36-17.36A17.37,17.37,0,0,1,550,125.94Z"></path><rect x="658.03" y="34.6" width="4.74" height="173.36"></rect></svg> 