<?xml version="1.0" encoding="UTF-8"?> <svg xmlns="http://www.w3.org/2000/svg" width="43" height="31" viewBox="0 0 43 31" fill="none"><path d="M8.4431 30.5C6.9195 30.5 5.61898 29.9596 4.54156 28.8788C3.46413 27.7977 2.92542 26.4849 2.92542 24.9404H1.79533C1.29868 24.9404 0.882618 24.7729 0.547142 24.4377C0.212003 24.1026 0.0444336 23.6865 0.0444336 23.1895V3.95133C0.0444336 3.01657 0.385966 2.20766 1.06903 1.5246C1.7521 0.841532 2.56117 0.5 3.49627 0.5H27.6142C28.5647 0.5 29.3777 0.837663 30.053 1.51299C30.7283 2.18798 31.066 3.00076 31.066 3.95133V8.31167H34.11C34.6666 8.31167 35.1817 8.42893 35.6555 8.66346C36.1293 8.89766 36.5251 9.22556 36.8431 9.64718L42.6631 17.3655C42.7382 17.5246 42.8093 17.6878 42.8766 17.8551C42.9439 18.0223 42.9776 18.2035 42.9776 18.3987V23.1774C42.9776 23.6825 42.8102 24.1026 42.4754 24.4377C42.1406 24.7729 41.7412 24.9404 41.2771 24.9404H39.6348C39.6348 26.5004 39.0939 27.817 38.0121 28.8904C36.9303 29.9635 35.6168 30.5 34.0717 30.5C32.5511 30.5 31.2598 29.9596 30.1979 28.8788C29.1356 27.7977 28.6044 26.4849 28.6044 24.9404H14.0062C14.0062 26.5091 13.4599 27.828 12.3674 28.897C11.2748 29.9657 9.96671 30.5 8.4431 30.5ZM8.46481 28.2913C9.39216 28.2913 10.1794 27.968 10.8264 27.3212C11.4735 26.6748 11.797 25.888 11.797 24.9606C11.797 24.0336 11.4738 23.2466 10.8274 22.5995C10.1807 21.9524 9.39384 21.6289 8.46682 21.6289C7.53947 21.6289 6.75226 21.9521 6.1052 22.5985C5.45814 23.2449 5.13461 24.0317 5.13461 24.9591C5.13461 25.8861 5.45781 26.6732 6.10419 27.3202C6.75058 27.9676 7.53745 28.2913 8.46481 28.2913ZM2.25363 22.7312H3.42611C3.81441 21.7864 4.46921 20.9963 5.39051 20.361C6.31181 19.7257 7.3295 19.4081 8.44361 19.4081C9.50623 19.4081 10.51 19.7296 11.4548 20.3726C12.4 21.016 13.0666 21.8022 13.4545 22.7312H28.8568V3.95133C28.8568 3.58927 28.7338 3.29165 28.4879 3.05846C28.2419 2.82562 27.9507 2.70919 27.6142 2.70919H3.49627C3.18569 2.70919 2.90086 2.83857 2.64176 3.09733C2.38301 3.35609 2.25363 3.64075 2.25363 3.95133V22.7312ZM34.0934 28.2913C35.0207 28.2913 35.8079 27.968 36.455 27.3212C37.102 26.6748 37.4256 25.888 37.4256 24.9606C37.4256 24.0336 37.1022 23.2466 36.4555 22.5995C35.8091 21.9524 35.0224 21.6289 34.0954 21.6289C33.168 21.6289 32.3808 21.9521 31.7338 22.5985C31.0867 23.2449 30.7632 24.0317 30.7632 24.9591C30.7632 25.8861 31.0864 26.6732 31.7328 27.3202C32.3791 27.9676 33.166 28.2913 34.0934 28.2913ZM31.066 18.4956H40.7568L35.0417 11.0256C34.9381 10.8701 34.7958 10.7471 34.6147 10.6566C34.4334 10.5661 34.2392 10.5209 34.0323 10.5209H31.066V18.4956Z" fill="#FAFAFA"></path></svg> 