<?xml version="1.0" encoding="UTF-8"?> <svg xmlns="http://www.w3.org/2000/svg" width="25" height="26" viewBox="0 0 25 26" fill="none"><g id="desktop_mac"><mask id="mask0_1093_6487" style="mask-type:alpha" maskUnits="userSpaceOnUse" x="0" y="0" width="25" height="26"><rect id="Bounding box" y="0.5" width="25" height="25" fill="#D9D9D9"></rect></mask><g mask="url(#mask0_1093_6487)"><path id="desktop_mac_2" d="M11.2707 18.9094H4.23268C3.78511 18.9094 3.40169 18.7497 3.08242 18.4305C2.76315 18.1114 2.60352 17.7279 2.60352 17.2802V5.77499C2.60352 5.32743 2.76315 4.94401 3.08242 4.62473C3.40169 4.30546 3.78511 4.14583 4.23268 4.14583H20.766C21.2136 4.14583 21.597 4.30546 21.9163 4.62473C22.2355 4.94401 22.3952 5.32743 22.3952 5.77499V17.2802C22.3952 17.7279 22.2355 18.1114 21.9163 18.4305C21.597 18.7497 21.2136 18.9094 20.766 18.9094H13.728L15.6822 20.8745C15.7051 20.8972 15.7446 20.9967 15.8007 21.1729V21.4375C15.8007 21.5594 15.7617 21.6593 15.6837 21.7372C15.6058 21.8152 15.504 21.8542 15.3785 21.8542H9.50143C9.41549 21.8542 9.34345 21.8247 9.28529 21.7659C9.22713 21.7069 9.19805 21.6349 9.19805 21.55V21.1182C9.19805 21.0906 9.22912 21.0182 9.29128 20.901L11.2707 18.9094ZM3.91237 15.5602H21.0863V5.77499C21.0863 5.69496 21.053 5.62152 20.9863 5.55468C20.9195 5.48802 20.8461 5.45468 20.766 5.45468H4.23268C4.15265 5.45468 4.07921 5.48802 4.01237 5.55468C3.9457 5.62152 3.91237 5.69496 3.91237 5.77499V15.5602Z" fill="#002052"></path></g></g></svg> 