<?xml version="1.0" encoding="UTF-8"?> <svg xmlns="http://www.w3.org/2000/svg" width="25" height="26" viewBox="0 0 25 26" fill="none"><mask id="mask0_2395_6071" style="mask-type:alpha" maskUnits="userSpaceOnUse" x="0" y="0" width="25" height="26"><rect y="0.75" width="25" height="25" fill="#D9D9D9"></rect></mask><g mask="url(#mask0_2395_6071)"><path d="M9.44167 22.8786H15.5583C15.6517 22.8786 15.7285 22.8486 15.7885 22.7885C15.8486 22.7285 15.8786 22.6517 15.8786 22.5583V16.4703C15.4594 16.9191 14.9605 17.2758 14.382 17.5404C13.8036 17.8051 13.1762 17.9375 12.5 17.9375C11.8238 17.9375 11.1964 17.8051 10.618 17.5404C10.0395 17.2758 9.54063 16.9191 9.12135 16.4703V22.5583C9.12135 22.6517 9.15139 22.7285 9.21146 22.7885C9.27153 22.8486 9.34826 22.8786 9.44167 22.8786ZM12.4951 16.6286C13.4322 16.6286 14.2305 16.3007 14.8898 15.6448C15.549 14.9887 15.8786 14.1921 15.8786 13.2549C15.8786 12.3178 15.5507 11.5195 14.8948 10.8602C14.2387 10.201 13.4421 9.87136 12.5049 9.87136C11.5678 9.87136 10.7695 10.1993 10.1102 10.8552C9.45096 11.5113 9.12135 12.3079 9.12135 13.2451C9.12135 14.1822 9.44931 14.9805 10.1052 15.6398C10.7613 16.299 11.5579 16.6286 12.4951 16.6286ZM9.12135 10.0297C9.54063 9.5809 10.0395 9.22422 10.618 8.95964C11.1964 8.69488 11.8238 8.5625 12.5 8.5625C13.1762 8.5625 13.8036 8.69488 14.382 8.95964C14.9605 9.22422 15.4594 9.5809 15.8786 10.0297V3.94167C15.8786 3.84826 15.8486 3.77153 15.7885 3.71146C15.7285 3.65139 15.6517 3.62135 15.5583 3.62135H9.44167C9.34826 3.62135 9.27153 3.65139 9.21146 3.71146C9.15139 3.77153 9.12135 3.84826 9.12135 3.94167V10.0297ZM9.44167 24.1875C8.9941 24.1875 8.61068 24.0279 8.29141 23.7086C7.97214 23.3893 7.8125 23.0059 7.8125 22.5583V3.94167C7.8125 3.4941 7.97214 3.11068 8.29141 2.79141C8.61068 2.47214 8.9941 2.3125 9.44167 2.3125H15.5583C16.0059 2.3125 16.3893 2.47214 16.7086 2.79141C17.0279 3.11068 17.1875 3.4941 17.1875 3.94167V22.5583C17.1875 23.0059 17.0279 23.3893 16.7086 23.7086C16.3893 24.0279 16.0059 24.1875 15.5583 24.1875H9.44167ZM12.4979 14.6156C12.1186 14.6156 11.7965 14.4828 11.5318 14.2172C11.2668 13.9517 11.1344 13.6294 11.1344 13.2503C11.1344 12.8709 11.2672 12.5473 11.5328 12.2794C11.7983 12.0117 12.1206 11.8779 12.4997 11.8779C12.8791 11.8779 13.2027 12.0121 13.4706 12.2805C13.7383 12.549 13.8721 12.8729 13.8721 13.2521C13.8721 13.6314 13.7379 13.9535 13.4695 14.2182C13.201 14.4832 12.8771 14.6156 12.4979 14.6156ZM12.5026 6.73281C12.7186 6.73281 12.9012 6.65729 13.0505 6.50625C13.1998 6.35503 13.2745 6.17153 13.2745 5.95573C13.2745 5.73976 13.199 5.55712 13.0479 5.40781C12.8967 5.25851 12.7132 5.18385 12.4974 5.18385C12.2814 5.18385 12.0988 5.25938 11.9495 5.41042C11.8002 5.56163 11.7255 5.74514 11.7255 5.96094C11.7255 6.17691 11.801 6.35955 11.9521 6.50885C12.1033 6.65816 12.2868 6.73281 12.5026 6.73281Z" fill="#002052"></path></g></svg> 