<?xml version="1.0" encoding="UTF-8"?> <svg xmlns="http://www.w3.org/2000/svg" width="25" height="25" viewBox="0 0 25 25" fill="none"><mask id="mask0_511_66777" style="mask-type:alpha" maskUnits="userSpaceOnUse" x="0" y="0" width="25" height="25"><rect width="25" height="25" fill="#D9D9D9"></rect></mask><g mask="url(#mask0_511_66777)"><path d="M11.9307 9.48763L10.2568 7.79596C10.171 7.71037 10.109 7.61888 10.0708 7.52148C10.0325 7.42391 10.0133 7.32574 10.0133 7.22695V3.4181C10.0133 3.18737 10.0914 2.99388 10.2477 2.83763C10.4037 2.68155 10.5971 2.60352 10.8279 2.60352H14.1919C14.4185 2.60352 14.6109 2.68155 14.7693 2.83763C14.9274 2.99388 15.0065 3.18737 15.0065 3.4181V7.22695C15.0065 7.32574 14.9874 7.42391 14.9492 7.52148C14.9108 7.61888 14.8489 7.71037 14.7633 7.79596L13.0719 9.48763C12.9861 9.57322 12.8959 9.63251 12.8013 9.66549C12.7065 9.69831 12.605 9.71471 12.4969 9.71471C12.3885 9.71471 12.2885 9.69831 12.1969 9.66549C12.1052 9.63251 12.0165 9.57322 11.9307 9.48763ZM15.513 13.0699C15.4274 12.9842 15.3681 12.894 15.3352 12.7993C15.3023 12.7046 15.2859 12.6031 15.2859 12.4949C15.2859 12.3866 15.3023 12.2866 15.3352 12.1949C15.3681 12.1033 15.4274 12.0145 15.513 11.9288L17.2047 10.2374C17.2903 10.1518 17.3818 10.0898 17.4792 10.0514C17.5767 10.0132 17.6749 9.99414 17.7737 9.99414H21.5826C21.8133 9.99414 22.0068 10.0732 22.163 10.2314C22.3191 10.3897 22.3971 10.5822 22.3971 10.8087V14.1728C22.3971 14.4035 22.3191 14.5969 22.163 14.753C22.0068 14.9092 21.8133 14.9874 21.5826 14.9874H17.7737C17.6749 14.9874 17.5767 14.9682 17.4792 14.9298C17.3818 14.8916 17.2903 14.8296 17.2047 14.7439L15.513 13.0699ZM2.60547 14.1728V10.8087C2.60547 10.5822 2.68351 10.3897 2.83958 10.2314C2.99583 10.0732 3.18932 9.99414 3.42005 9.99414H7.22891C7.32769 9.99414 7.42587 10.0132 7.52344 10.0514C7.62083 10.0898 7.71233 10.1518 7.79792 10.2374L9.48958 11.9288C9.57517 12.0145 9.63446 12.1047 9.66745 12.1993C9.70026 12.2941 9.71667 12.3956 9.71667 12.5038C9.71667 12.6121 9.70026 12.7121 9.66745 12.8038C9.63446 12.8954 9.57517 12.9842 9.48958 13.0699L7.79792 14.7439C7.71233 14.8296 7.62083 14.8916 7.52344 14.9298C7.42587 14.9682 7.32769 14.9874 7.22891 14.9874H3.42005C3.18932 14.9874 2.99583 14.9092 2.83958 14.753C2.68351 14.5969 2.60547 14.4035 2.60547 14.1728ZM10.0133 21.5806V17.7717C10.0133 17.673 10.0325 17.5748 10.0708 17.4772C10.109 17.3798 10.171 17.2883 10.2568 17.2027L11.9307 15.5111C12.0165 15.4255 12.1067 15.3662 12.2013 15.3332C12.2961 15.3004 12.3976 15.284 12.5057 15.284C12.6141 15.284 12.7141 15.3004 12.8057 15.3332C12.8974 15.3662 12.9861 15.4255 13.0719 15.5111L14.7633 17.2027C14.8489 17.2883 14.9108 17.3798 14.9492 17.4772C14.9874 17.5748 15.0065 17.673 15.0065 17.7717V21.5806C15.0065 21.8113 14.9274 22.0048 14.7693 22.1611C14.6109 22.3171 14.4185 22.3952 14.1919 22.3952H10.8279C10.5971 22.3952 10.4037 22.3171 10.2477 22.1611C10.0914 22.0048 10.0133 21.8113 10.0133 21.5806ZM12.5013 8.22174L13.6979 7.02305V3.91237H11.3221V7.02513L12.5013 8.22174ZM3.91432 13.6785H7.04453L8.23437 12.4993L7.04453 11.3027H3.91432V13.6785ZM11.3221 21.0863H13.6979V17.9561L12.5013 16.7663L11.3221 17.9561V21.0863ZM17.9776 13.6785H21.0883V11.3027H17.9755L16.7789 12.4993L17.9776 13.6785Z" fill="#002052"></path></g></svg> 