<?xml version="1.0" encoding="UTF-8"?> <svg xmlns="http://www.w3.org/2000/svg" width="25" height="26" viewBox="0 0 25 26" fill="none"><g id="hard_drive"><mask id="mask0_1093_6438" style="mask-type:alpha" maskUnits="userSpaceOnUse" x="0" y="0" width="25" height="26"><rect id="Bounding box" y="0.5" width="25" height="25" fill="#D9D9D9"></rect></mask><g mask="url(#mask0_1093_6438)"><path id="hard_drive_2" d="M4.23268 18.1614H20.766C20.8594 18.1614 20.9362 18.1314 20.9962 18.0713C21.0563 18.0112 21.0863 17.9345 21.0863 17.8411V11.5242H3.91237V17.8411C3.91237 17.9345 3.9424 18.0112 4.00247 18.0713C4.06254 18.1314 4.13928 18.1614 4.23268 18.1614ZM17.7691 16.0182C18.0959 16.0182 18.3732 15.9038 18.6012 15.6749C18.8291 15.4461 18.9431 15.1684 18.9431 14.8416C18.9431 14.5149 18.8287 14.2375 18.5999 14.0096C18.371 13.7816 18.0933 13.6677 17.7665 13.6677C17.4398 13.6677 17.1625 13.7821 16.9345 14.0109C16.7066 14.2395 16.5926 14.5173 16.5926 14.8442C16.5926 15.171 16.707 15.4483 16.9358 15.6763C17.1645 15.9042 17.4422 16.0182 17.7691 16.0182ZM22.3952 10.2156H20.5462L17.9887 7.61792H7.01003L4.45247 10.2156H2.60352L5.98763 6.79136C6.13277 6.63962 6.30621 6.52131 6.50794 6.43641C6.70985 6.35169 6.92391 6.30933 7.15013 6.30933H17.8486C18.0748 6.30933 18.2888 6.35169 18.4908 6.43641C18.6925 6.52131 18.8682 6.63962 19.0178 6.79136L22.3952 10.2156ZM4.23268 19.4703C3.78824 19.4703 3.4056 19.3098 3.08477 18.989C2.76393 18.6682 2.60352 18.2855 2.60352 17.8411V10.2156H22.3952V17.8411C22.3952 18.2855 22.2348 18.6682 21.9139 18.989C21.5931 19.3098 21.2105 19.4703 20.766 19.4703H4.23268Z" fill="#002052"></path></g></g></svg> 