<?xml version="1.0" encoding="UTF-8"?> <svg xmlns="http://www.w3.org/2000/svg" width="25" height="26" viewBox="0 0 25 26" fill="none"><g id="helicopter"><mask id="mask0_1093_6478" style="mask-type:alpha" maskUnits="userSpaceOnUse" x="0" y="0" width="25" height="26"><rect id="Bounding box" y="0.5" width="25" height="25" fill="#D9D9D9"></rect></mask><g mask="url(#mask0_1093_6478)"><path id="helicopter_2" d="M5.16185 9.6073C4.57383 10.2189 4.11176 10.9261 3.77565 11.7287C3.43954 12.5313 3.27148 13.3824 3.27148 14.282V14.4089H9.7418C9.83537 14.4089 9.9122 14.3788 9.97227 14.3188C10.0323 14.2587 10.0624 14.1819 10.0624 14.0883V7.61798H9.93555C8.9661 7.61798 8.07426 7.79662 7.26003 8.15392C6.44562 8.51121 5.74622 8.99567 5.16185 9.6073ZM3.59206 18.382H13.715C13.8084 18.382 13.8851 18.3519 13.9452 18.2917C14.0054 18.2316 14.0355 18.1549 14.0355 18.0615V7.93855C14.0355 7.84515 14.0054 7.76841 13.9452 7.70834C13.8851 7.6481 13.8084 7.61798 13.715 7.61798H11.3712V14.0883C11.3712 14.5329 11.2108 14.9156 10.89 15.2365C10.5691 15.5573 10.1864 15.7177 9.7418 15.7177H3.27148V18.0615C3.27148 18.1549 3.30152 18.2316 3.36159 18.2917C3.42183 18.3519 3.49865 18.382 3.59206 18.382ZM15.3441 15.0966L21.4371 14.4456C21.5173 14.4367 21.5858 14.4011 21.6426 14.3388C21.6994 14.2765 21.7277 14.2052 21.7277 14.125V12.2253H15.3441V15.0966ZM4.29987 22.4951C4.11445 22.4951 3.95907 22.432 3.83372 22.306C3.7082 22.18 3.64544 22.0237 3.64544 21.8372C3.64544 21.6508 3.7082 21.4958 3.83372 21.3721C3.95907 21.2484 4.11445 21.1865 4.29987 21.1865H12.7566C12.9421 21.1865 13.0975 21.2495 13.223 21.3755C13.3484 21.5016 13.4111 21.6578 13.4111 21.8443C13.4111 22.0307 13.3484 22.1858 13.223 22.3094C13.0975 22.4332 12.9421 22.4951 12.7566 22.4951H4.29987ZM3.59206 19.6906C3.14744 19.6906 2.76471 19.5302 2.44388 19.2094C2.12322 18.8887 1.96289 18.5061 1.96289 18.0615V14.282C1.96289 12.1025 2.71506 10.2289 4.2194 8.66121C5.72374 7.09333 7.62912 6.30939 9.93555 6.30939H13.715C14.1596 6.30939 14.5422 6.4698 14.8629 6.79064C15.1837 7.1113 15.3441 7.49393 15.3441 7.93855V10.9167H20.4923L21.2676 9.2659C21.3344 9.1218 21.4296 9.01364 21.553 8.94142C21.6766 8.86937 21.8138 8.83334 21.9647 8.83334H22.2569C22.4777 8.83334 22.6629 8.90817 22.8124 9.05782C22.9617 9.20765 23.0363 9.39324 23.0363 9.61459V14.125C23.0363 14.5484 22.8985 14.9151 22.6228 15.225C22.3471 15.5349 21.9953 15.7118 21.5673 15.7557L15.3441 16.4055V18.0615C15.3441 18.5061 15.1837 18.8887 14.8629 19.2094C14.5422 19.5302 14.1596 19.6906 13.715 19.6906H3.59206ZM4.29987 4.81355C4.11445 4.81355 3.95907 4.75053 3.83372 4.62449C3.7082 4.49845 3.64544 4.3422 3.64544 4.15574C3.64544 3.96928 3.7082 3.81425 3.83372 3.69064C3.95907 3.56685 4.11445 3.50496 4.29987 3.50496H19.0066C19.1921 3.50496 19.3475 3.56798 19.473 3.69402C19.5984 3.82006 19.6611 3.97631 19.6611 4.16277C19.6611 4.34923 19.5984 4.50426 19.473 4.62788C19.3475 4.75166 19.1921 4.81355 19.0066 4.81355H4.29987Z" fill="#002052"></path></g></g></svg> 