<?xml version="1.0" encoding="UTF-8"?> <svg xmlns="http://www.w3.org/2000/svg" width="25" height="26" viewBox="0 0 25 26" fill="none"><mask id="mask0_1091_39603" style="mask-type:alpha" maskUnits="userSpaceOnUse" x="0" y="0" width="25" height="26"><rect y="0.5" width="25" height="25" fill="#D9D9D9"></rect></mask><g mask="url(#mask0_1091_39603)"><path d="M8.94688 8.70781C8.76042 8.70781 8.6053 8.64505 8.48151 8.51953C8.35773 8.39418 8.29583 8.2388 8.29583 8.05339V6.46563C8.29583 6.28021 8.35894 6.12474 8.48516 5.99922C8.6112 5.87387 8.76745 5.8112 8.95391 5.8112C9.14019 5.8112 9.29523 5.87387 9.41901 5.99922C9.5428 6.12474 9.60469 6.28021 9.60469 6.46563V8.05339C9.60469 8.2388 9.54167 8.39418 9.41563 8.51953C9.28941 8.64505 9.13316 8.70781 8.94688 8.70781ZM8.94688 17.6326C8.76042 17.6326 8.6053 17.5699 8.48151 17.4445C8.35773 17.3192 8.29583 17.1638 8.29583 16.9784V13.4688C8.29583 13.2877 8.35894 13.1333 8.48516 13.0057C8.6112 12.8781 8.76745 12.8143 8.95391 12.8143C9.14019 12.8143 9.29523 12.8781 9.41901 13.0057C9.5428 13.1333 9.60469 13.2877 9.60469 13.4688V16.9784C9.60469 17.1638 9.54167 17.3192 9.41563 17.4445C9.28941 17.5699 9.13316 17.6326 8.94688 17.6326ZM6.31667 22.8971C5.87222 22.8971 5.48958 22.7367 5.16875 22.4159C4.84792 22.0951 4.6875 21.7124 4.6875 21.268V4.73464C4.6875 4.29019 4.84792 3.90755 5.16875 3.58672C5.48958 3.26588 5.87222 3.10547 6.31667 3.10547H18.6833C19.1278 3.10547 19.5104 3.26588 19.8313 3.58672C20.1521 3.90755 20.3125 4.29019 20.3125 4.73464V21.268C20.3125 21.7124 20.1521 22.0951 19.8313 22.4159C19.5104 22.7367 19.1278 22.8971 18.6833 22.8971H6.31667ZM6.31667 21.5883H18.6833C18.7767 21.5883 18.8535 21.5582 18.9135 21.4982C18.9736 21.4381 19.0036 21.3614 19.0036 21.268V11.4133H5.99635V21.268C5.99635 21.3614 6.02639 21.4381 6.08646 21.4982C6.14653 21.5582 6.22326 21.5883 6.31667 21.5883ZM5.99635 10.1047H19.0036V4.73464C19.0036 4.64123 18.9736 4.5645 18.9135 4.50443C18.8535 4.44436 18.7767 4.41432 18.6833 4.41432H6.31667C6.22326 4.41432 6.14653 4.44436 6.08646 4.50443C6.02639 4.5645 5.99635 4.64123 5.99635 4.73464V10.1047Z" fill="#002052"></path></g></svg> 