<?xml version="1.0" encoding="UTF-8"?> <svg xmlns="http://www.w3.org/2000/svg" width="25" height="26" viewBox="0 0 25 26" fill="none"><g id="laptop_mac"><mask id="mask0_1093_6538" style="mask-type:alpha" maskUnits="userSpaceOnUse" x="0" y="0" width="25" height="26"><rect id="Bounding box" y="0.5" width="25" height="25" fill="#D9D9D9"></rect></mask><g mask="url(#mask0_1093_6538)"><path id="laptop_mac_2" d="M1.93164 20.9526C1.54605 20.9526 1.21463 20.8102 0.93737 20.5255C0.660113 20.2406 0.521484 19.9 0.521484 19.5036H4.24492C3.79718 19.5036 3.41367 19.3441 3.0944 19.025C2.77513 18.7057 2.61549 18.3222 2.61549 17.8745V5.775C2.61549 5.32743 2.77513 4.94401 3.0944 4.62474C3.41367 4.30547 3.79718 4.14583 4.24492 4.14583H20.7564C21.2041 4.14583 21.5876 4.30547 21.9069 4.62474C22.2262 4.94401 22.3858 5.32743 22.3858 5.775V17.8745C22.3858 18.3222 22.2262 18.7057 21.9069 19.025C21.5876 19.3441 21.2041 19.5036 20.7564 19.5036H24.4798C24.4798 19.9038 24.3374 20.2454 24.0525 20.5284C23.7678 20.8112 23.4272 20.9526 23.0309 20.9526H1.93164ZM12.5007 20.3971C12.7196 20.3971 12.9016 20.3246 13.0467 20.1794C13.1919 20.0343 13.2645 19.8534 13.2645 19.6367C13.2645 19.42 13.1919 19.238 13.0467 19.0906C12.9016 18.9432 12.7196 18.8695 12.5007 18.8695C12.2817 18.8695 12.0997 18.9435 11.9546 19.0914C11.8094 19.2395 11.7368 19.4201 11.7368 19.6333C11.7368 19.8523 11.8094 20.0343 11.9546 20.1794C12.0997 20.3246 12.2817 20.3971 12.5007 20.3971ZM4.24492 18.195H20.7564C20.8366 18.195 20.9101 18.1616 20.977 18.0948C21.0436 18.0281 21.077 17.9547 21.077 17.8745V5.775C21.077 5.69496 21.0436 5.62153 20.977 5.55469C20.9101 5.48802 20.8366 5.45469 20.7564 5.45469H4.24492C4.16471 5.45469 4.09119 5.48802 4.02435 5.55469C3.95768 5.62153 3.92435 5.69496 3.92435 5.775V17.8745C3.92435 17.9547 3.95768 18.0281 4.02435 18.0948C4.09119 18.1616 4.16471 18.195 4.24492 18.195Z" fill="#002052"></path></g></g></svg> 