<?xml version="1.0" encoding="UTF-8"?> <svg xmlns="http://www.w3.org/2000/svg" width="21" height="20" viewBox="0 0 21 20" fill="none"><path d="M2.222 17.8125C1.76923 17.8125 1.38633 17.652 1.07331 17.3312C0.760113 17.0104 0.603516 16.6277 0.603516 16.1833V1.73329C0.603516 1.28885 0.760113 0.906209 1.07331 0.585375C1.38633 0.264542 1.76923 0.104126 2.222 0.104126H11.5944C12.039 0.104126 12.4217 0.264542 12.7426 0.585375C13.0632 0.906209 13.2236 1.28885 13.2236 1.73329V6.0234C12.997 6.06228 12.7737 6.10751 12.5535 6.15907C12.3334 6.21081 12.1205 6.27383 11.915 6.34814V1.73329C11.915 1.63989 11.8849 1.56315 11.8249 1.50308C11.7648 1.44301 11.688 1.41298 11.5944 1.41298H2.222C2.1286 1.41298 2.05187 1.44301 1.9918 1.50308C1.93173 1.56315 1.90169 1.63989 1.90169 1.73329V16.1833C1.90169 16.2767 1.93173 16.3534 1.9918 16.4135C2.05187 16.4736 2.1286 16.5036 2.222 16.5036H6.50638V17.8125H2.222ZM6.50638 14.9526V14.0263C6.50638 13.9582 6.50942 13.8917 6.51549 13.8268C6.52157 13.7617 6.52522 13.6961 6.52643 13.6299C6.02556 13.5474 5.6003 13.3084 5.25065 12.9127C4.901 12.5169 4.72617 12.0534 4.72617 11.5224C4.72617 10.9177 4.93685 10.4037 5.3582 9.98043C5.77956 9.55716 6.29449 9.34553 6.90299 9.34553C7.06272 9.34553 7.2115 9.36723 7.34935 9.41064C7.48702 9.45404 7.62287 9.51558 7.7569 9.59527C7.87843 9.40291 8.00629 9.21793 8.14049 9.04032C8.2747 8.86272 8.41931 8.69267 8.57435 8.53017C8.33476 8.37617 8.07634 8.25543 7.79909 8.16793C7.52183 8.0806 7.22313 8.03694 6.90299 8.03694C5.93581 8.03694 5.11306 8.37713 4.43477 9.05751C3.75647 9.73807 3.41732 10.5597 3.41732 11.5224C3.41732 12.4165 3.7161 13.1884 4.31367 13.8382C4.91141 14.4881 5.64232 14.8595 6.50638 14.9526ZM6.91471 6.35413C7.32131 6.35413 7.66654 6.21185 7.95039 5.9273C8.23407 5.64275 8.37591 5.29718 8.37591 4.89058C8.37591 4.48416 8.23364 4.13902 7.94909 3.85517C7.66454 3.57131 7.31897 3.42939 6.91237 3.42939C6.50595 3.42939 6.16081 3.57166 5.87695 3.85621C5.5931 4.14093 5.45117 4.4865 5.45117 4.89293C5.45117 5.29953 5.59353 5.64466 5.87825 5.92835C6.1628 6.2122 6.50829 6.35413 6.91471 6.35413ZM10.9934 19.8958H10.2923C9.80933 19.8958 9.39588 19.7238 9.05195 19.3799C8.7082 19.036 8.53633 18.6225 8.53633 18.1395V13.8862C8.53633 12.2391 9.11298 10.8391 10.2663 9.68616C11.4197 8.53321 12.8204 7.95673 14.4681 7.95673C16.1158 7.95673 17.5156 8.53321 18.6673 9.68616C19.8192 10.8391 20.3952 12.2391 20.3952 13.8862V18.1395C20.3952 18.6225 20.2232 19.036 19.8793 19.3799C19.5354 19.7238 19.1219 19.8958 18.6389 19.8958H17.9379C17.7072 19.8958 17.5137 19.8178 17.3574 19.6617C17.2013 19.5054 17.1233 19.3119 17.1233 19.0812V16.0763C17.1233 15.8455 17.2013 15.652 17.3574 15.4958C17.5137 15.3397 17.7072 15.2617 17.9379 15.2617H19.4069V13.8862C19.4069 12.5136 18.927 11.3469 17.9671 10.3862C17.0073 9.42539 15.8418 8.94501 14.4704 8.94501C13.0993 8.94501 11.9322 9.42539 10.9691 10.3862C10.0059 11.3469 9.52435 12.5136 9.52435 13.8862V15.2617H10.9934C11.2243 15.2617 11.4178 15.3397 11.5738 15.4958C11.7299 15.652 11.8079 15.8455 11.8079 16.0763V19.0812C11.8079 19.3119 11.7299 19.5054 11.5738 19.6617C11.4178 19.8178 11.2243 19.8958 10.9934 19.8958Z" fill="#002052"></path></svg> 