<?xml version="1.0" encoding="UTF-8"?> <svg xmlns="http://www.w3.org/2000/svg" width="25" height="25" viewBox="0 0 25 25" fill="none"><mask id="mask0_633_27775" style="mask-type:alpha" maskUnits="userSpaceOnUse" x="0" y="0" width="25" height="25"><rect width="25" height="25" fill="#D9D9D9"></rect></mask><g mask="url(#mask0_633_27775)"><path d="M7.35964 23.4375C6.91207 23.4375 6.52865 23.2779 6.20938 22.9586C5.8901 22.6393 5.73047 22.2559 5.73047 21.8083V3.19167C5.73047 2.7441 5.8901 2.36068 6.20938 2.04141C6.52865 1.72214 6.91207 1.5625 7.35964 1.5625H17.643C18.0905 1.5625 18.474 1.72214 18.7932 2.04141C19.1125 2.36068 19.2721 2.7441 19.2721 3.19167V21.8083C19.2721 22.2559 19.1125 22.6393 18.7932 22.9586C18.474 23.2779 18.0905 23.4375 17.643 23.4375H7.35964ZM7.03932 19.144V21.8083C7.03932 21.8884 7.07266 21.9618 7.13932 22.0286C7.20616 22.0953 7.2796 22.1286 7.35964 22.1286H17.643C17.723 22.1286 17.7964 22.0953 17.8633 22.0286C17.9299 21.9618 17.9633 21.8884 17.9633 21.8083V19.144H7.03932ZM12.5044 21.4276C12.7244 21.4276 12.9113 21.3508 13.0651 21.1971C13.2189 21.0435 13.2958 20.8556 13.2958 20.6333C13.2958 20.4109 13.2179 20.2228 13.062 20.069C12.9061 19.9152 12.7181 19.8383 12.4982 19.8383C12.2782 19.8383 12.0913 19.9162 11.9375 20.0721C11.7837 20.228 11.7068 20.416 11.7068 20.6359C11.7068 20.8606 11.7847 21.0487 11.9406 21.2003C12.0965 21.3518 12.2845 21.4276 12.5044 21.4276ZM7.03932 17.8352H17.9633V5.35521H7.03932V17.8352ZM7.03932 4.04662H17.9633V3.19167C17.9633 3.11163 17.9299 3.03819 17.8633 2.97135C17.7964 2.90469 17.723 2.87135 17.643 2.87135H7.35964C7.2796 2.87135 7.20616 2.90469 7.13932 2.97135C7.07266 3.03819 7.03932 3.11163 7.03932 3.19167V4.04662Z" fill="#002052"></path></g></svg> 