<?xml version="1.0" encoding="UTF-8"?> <svg xmlns="http://www.w3.org/2000/svg" width="25" height="25" viewBox="0 0 25 25" fill="none"><mask id="mask0_633_27955" style="mask-type:alpha" maskUnits="userSpaceOnUse" x="0" y="0" width="25" height="25"><rect width="25" height="25" fill="#D9D9D9"></rect></mask><g mask="url(#mask0_633_27955)"><path d="M12.4958 17.741C13.6689 17.741 14.6564 17.3401 15.4583 16.5382C16.2602 15.7362 16.6612 14.7487 16.6612 13.5757C16.6612 12.4027 16.2602 11.4171 15.4583 10.6186C14.6564 9.82018 13.6689 9.42096 12.4958 9.42096C11.3229 9.42096 10.3372 9.82018 9.5388 10.6186C8.74054 11.4171 8.34141 12.4027 8.34141 13.5757C8.34141 14.7487 8.74054 15.7362 9.5388 16.5382C10.3372 17.3401 11.3229 17.741 12.4958 17.741ZM12.4958 16.4322C11.683 16.4322 11.0055 16.1593 10.4633 15.6137C9.92109 15.0678 9.65 14.3885 9.65 13.5757C9.65 12.7628 9.92109 12.0853 10.4633 11.5431C11.0055 11.0009 11.683 10.7298 12.4958 10.7298C13.3089 10.7298 13.9882 11.0009 14.5339 11.5431C15.0797 12.0853 15.3526 12.7628 15.3526 13.5757C15.3526 14.3885 15.0797 15.0678 14.5339 15.6137C13.9882 16.1593 13.3089 16.4322 12.4958 16.4322ZM4.23464 21.3548C3.78707 21.3548 3.40365 21.1952 3.08437 20.8759C2.7651 20.5566 2.60547 20.1732 2.60547 19.7257V7.44727C2.60547 7.0056 2.7651 6.62365 3.08437 6.30143C3.40365 5.97921 3.78707 5.8181 4.23464 5.8181H7.68021L9.10911 4.18659C9.25425 4.01003 9.43281 3.87583 9.64479 3.78399C9.85677 3.69232 10.0852 3.64648 10.3299 3.64648H14.6727C14.9174 3.64648 15.1458 3.69232 15.3578 3.78399C15.5698 3.87583 15.7484 4.01003 15.8935 4.18659L17.3224 5.8181H20.768C21.2095 5.8181 21.5913 5.97921 21.9135 6.30143C22.2359 6.62365 22.3971 7.0056 22.3971 7.44727V19.7257C22.3971 20.1732 22.2359 20.5566 21.9135 20.8759C21.5913 21.1952 21.2095 21.3548 20.768 21.3548H4.23464ZM4.23464 20.046H20.768C20.8614 20.046 20.9381 20.0159 20.9982 19.9559C21.0582 19.8958 21.0883 19.8191 21.0883 19.7257V7.44727C21.0883 7.3582 21.0582 7.28251 20.9982 7.22018C20.9381 7.15786 20.8614 7.12669 20.768 7.12669H16.724L14.813 4.95534H10.1896L8.27865 7.12669H4.23464C4.14123 7.12669 4.0645 7.15786 4.00443 7.22018C3.94436 7.28251 3.91432 7.3582 3.91432 7.44727V19.7257C3.91432 19.8191 3.94436 19.8958 4.00443 19.9559C4.0645 20.0159 4.14123 20.046 4.23464 20.046Z" fill="#002052"></path></g></svg> 