<?xml version="1.0" encoding="UTF-8"?> <svg xmlns="http://www.w3.org/2000/svg" width="25" height="25" viewBox="0 0 25 25" fill="none"><mask id="mask0_633_28030" style="mask-type:alpha" maskUnits="userSpaceOnUse" x="0" y="0" width="25" height="25"><rect width="25" height="25" fill="#D9D9D9"></rect></mask><g mask="url(#mask0_633_28030)"><path d="M8.42578 21.3546C7.97769 21.3546 7.59418 21.1941 7.27526 20.8733C6.95616 20.5525 6.79661 20.1698 6.79661 19.7254V16.9835H4.53151C4.08707 16.9835 3.70443 16.8239 3.38359 16.5048C3.06276 16.1859 2.90234 15.8024 2.90234 15.3543V10.9767C2.90234 10.2942 3.1362 9.7201 3.60391 9.2543C4.07144 8.78832 4.64688 8.55534 5.33021 8.55534H19.6651C20.353 8.55534 20.9296 8.78832 21.3951 9.2543C21.8603 9.7201 22.093 10.2942 22.093 10.9767V15.3543C22.093 15.8024 21.9326 16.1859 21.6117 16.5048C21.2909 16.8239 20.9082 16.9835 20.4638 16.9835H18.1987V19.7254C18.1987 20.1698 18.0391 20.5525 17.7201 20.8733C17.4011 21.1941 17.0176 21.3546 16.5695 21.3546H8.42578ZM4.53151 15.6749H6.79661V15.4704C6.80547 15.0331 6.96814 14.6589 7.28464 14.3478C7.60113 14.0368 7.98151 13.8814 8.42578 13.8814H16.5695C17.0138 13.8814 17.3942 14.0368 17.7107 14.3478C18.0272 14.6589 18.1898 15.0331 18.1987 15.4704V15.6749H20.4638C20.5572 15.6749 20.6339 15.6448 20.694 15.5848C20.7541 15.5245 20.7841 15.4477 20.7841 15.3543V10.9728C20.7841 10.6589 20.6769 10.3956 20.4625 10.1829C20.2479 9.97044 19.9821 9.86419 19.6651 9.86419H5.33021C5.01319 9.86419 4.7474 9.97174 4.53281 10.1868C4.3184 10.4021 4.2112 10.6654 4.2112 10.9767V15.3543C4.2112 15.4477 4.24123 15.5245 4.3013 15.5848C4.36137 15.6448 4.43811 15.6749 4.53151 15.6749ZM16.8901 8.55534V5.59596C16.8901 5.50256 16.86 5.42583 16.7997 5.36576C16.7397 5.30551 16.6629 5.27539 16.5695 5.27539H8.42578C8.33238 5.27539 8.25564 5.30551 8.19557 5.36576C8.13533 5.42583 8.10521 5.50256 8.10521 5.59596V8.55534H6.79661V5.59596C6.79661 5.15135 6.95616 4.76871 7.27526 4.44805C7.59418 4.12721 7.97769 3.9668 8.42578 3.9668H16.5695C17.0176 3.9668 17.4011 4.12721 17.7201 4.44805C18.0391 4.76871 18.1987 5.15135 18.1987 5.59596V8.55534H16.8901ZM18.787 12.4014C19.0399 12.4014 19.2562 12.3116 19.4357 12.1319C19.6154 11.9522 19.7052 11.7371 19.7052 11.4866C19.7052 11.2361 19.6154 11.021 19.4357 10.8413C19.256 10.6618 19.0409 10.572 18.7904 10.572C18.5353 10.572 18.3191 10.6618 18.1417 10.8415C17.9642 11.0212 17.8755 11.2363 17.8755 11.4868C17.8755 11.7374 17.9642 11.9525 18.1417 12.1322C18.3191 12.3117 18.5342 12.4014 18.787 12.4014ZM16.8901 19.7254V15.5105C16.8901 15.4215 16.86 15.3458 16.7997 15.2835C16.7397 15.2211 16.6629 15.19 16.5695 15.19H8.42578C8.33238 15.19 8.25564 15.2211 8.19557 15.2835C8.13533 15.3458 8.10521 15.4215 8.10521 15.5105V19.7254C8.10521 19.8188 8.13533 19.8955 8.19557 19.9556C8.25564 20.0157 8.33238 20.0457 8.42578 20.0457H16.5695C16.6629 20.0457 16.7397 20.0157 16.7997 19.9556C16.86 19.8955 16.8901 19.8188 16.8901 19.7254Z" fill="#002052"></path></g></svg> 