<?xml version="1.0" encoding="UTF-8"?> <svg xmlns="http://www.w3.org/2000/svg" width="25" height="26" viewBox="0 0 25 26" fill="none"><mask id="mask0_2395_6062" style="mask-type:alpha" maskUnits="userSpaceOnUse" x="0" y="0" width="25" height="26"><rect y="0.75" width="25" height="25" fill="#D9D9D9"></rect></mask><g mask="url(#mask0_2395_6062)"><path d="M10.85 22.7234C10.5578 22.7234 10.2911 22.6354 10.05 22.4594C9.80885 22.2832 9.64618 22.0485 9.56198 21.7555L8.75677 18.8628C7.84462 18.3023 7.11215 17.5278 6.55938 16.5391C6.00677 15.5503 5.73047 14.4535 5.73047 13.2484C5.73047 12.0434 6.00677 10.9448 6.55938 9.9526C7.11215 8.96024 7.84462 8.18741 8.75677 7.63411L9.56198 4.74141C9.64618 4.44835 9.80885 4.21372 10.05 4.0375C10.2911 3.86146 10.5578 3.77344 10.85 3.77344H14.1526C14.4448 3.77344 14.7115 3.86146 14.9526 4.0375C15.1938 4.21372 15.3564 4.44835 15.4406 4.74141L16.2458 7.63411C17.158 8.18741 17.8905 8.96024 18.4432 9.9526C18.9958 10.9448 19.2721 12.0434 19.2721 13.2484C19.2721 14.4535 18.9958 15.5503 18.4432 16.5391C17.8905 17.5278 17.158 18.3023 16.2458 18.8628L15.4406 21.7555C15.3564 22.0485 15.1938 22.2832 14.9526 22.4594C14.7115 22.6354 14.4448 22.7234 14.1526 22.7234H10.85ZM12.5005 18.7104C14.0194 18.7104 15.3096 18.18 16.3711 17.1193C17.4326 16.0583 17.9633 14.7683 17.9633 13.2492C17.9633 11.7303 17.4329 10.4401 16.3721 9.37865C15.3112 8.31719 14.0212 7.78646 12.5021 7.78646C10.9832 7.78646 9.69297 8.31684 8.63151 9.3776C7.57005 10.4385 7.03932 11.7286 7.03932 13.2477C7.03932 14.7666 7.5697 16.0568 8.63047 17.1182C9.69141 18.1797 10.9814 18.7104 12.5005 18.7104ZM10.3646 6.85547C10.7443 6.74106 11.1076 6.6533 11.4547 6.59219C11.8016 6.5309 12.1504 6.50026 12.5013 6.50026C12.8522 6.50026 13.201 6.5309 13.5479 6.59219C13.895 6.6533 14.2583 6.74106 14.638 6.85547L14.1776 5.08203H10.8227L10.3646 6.85547ZM10.825 21.4148H14.1799L14.638 19.6414C14.2604 19.7487 13.8976 19.8304 13.5495 19.8865C13.2016 19.9425 12.8522 19.9706 12.5013 19.9706C12.1504 19.9706 11.801 19.9425 11.4531 19.8865C11.105 19.8304 10.7422 19.7487 10.3646 19.6414L10.825 21.4148ZM10.825 21.4148H10.3646H14.638H10.825Z" fill="#002052"></path></g></svg> 