<?xml version="1.0" encoding="UTF-8"?> <svg xmlns="http://www.w3.org/2000/svg" width="25" height="26" viewBox="0 0 25 26" fill="none"><g id="spa"><mask id="mask0_1093_6550" style="mask-type:alpha" maskUnits="userSpaceOnUse" x="0" y="0" width="25" height="26"><rect id="Bounding box" y="0.5" width="25" height="25" fill="#D9D9D9"></rect></mask><g mask="url(#mask0_1093_6550)"><path id="spa_2" d="M11.898 22.7563C10.7901 22.5556 9.69301 22.1844 8.6069 21.6427C7.52062 21.1012 6.54918 20.3641 5.69258 19.4313C4.83581 18.4985 4.14388 17.3602 3.6168 16.0164C3.08971 14.6729 2.82617 13.0909 2.82617 11.2706V11.061C2.82617 10.8705 2.89249 10.7089 3.02513 10.5761C3.15794 10.4434 3.31957 10.3771 3.51003 10.3771H3.69961C4.52357 10.3771 5.44518 10.5513 6.46445 10.8995C7.48355 11.2476 8.36523 11.6865 9.1095 12.2162C9.22131 10.9514 9.52669 9.63606 10.0257 8.27009C10.5248 6.90429 11.1469 5.68137 11.8921 4.60134C12.0549 4.36766 12.2581 4.25082 12.5017 4.25082C12.7453 4.25082 12.9485 4.36766 13.1113 4.60134C13.8565 5.68137 14.4786 6.90767 14.9777 8.28024C15.4767 9.65281 15.7821 10.9715 15.8939 12.2362C16.618 11.7453 17.483 11.3177 18.4889 10.9534C19.4947 10.5894 20.4263 10.3973 21.2837 10.3771L21.4988 10.3672C21.6862 10.3605 21.8493 10.4267 21.9884 10.5659C22.1276 10.705 22.1939 10.8682 22.1871 11.0555L22.1772 11.2907C22.1303 12.9372 21.8784 14.4006 21.4215 15.681C20.9645 16.9612 20.3478 18.0711 19.5712 19.0107C18.7947 19.9501 17.8834 20.7256 16.8374 21.3373C15.7912 21.9489 14.6607 22.4052 13.446 22.7063C13.2345 22.761 12.9765 22.7927 12.672 22.8016C12.3675 22.8106 12.1095 22.7955 11.898 22.7563ZM12.7767 21.5456C12.5857 18.5164 11.6844 16.2144 10.0728 14.6396C8.46115 13.065 6.48902 12.0875 4.15638 11.7073C4.36159 14.8247 5.29431 17.1653 6.95456 18.7292C8.6148 20.2931 10.5555 21.2319 12.7767 21.5456C12.8 21.563 12.7971 21.5673 12.7681 21.5586C12.7391 21.5499 12.742 21.5456 12.7767 21.5456ZM10.3824 13.0748C10.771 13.4091 11.1577 13.8246 11.5426 14.3211C11.9273 14.8178 12.2434 15.2869 12.491 15.7284C12.7264 15.2824 13.0432 14.8122 13.4413 14.3177C13.8392 13.8235 14.2324 13.4091 14.621 13.0748C14.6585 11.9673 14.4781 10.8144 14.0798 9.61592C13.6817 8.41766 13.1557 7.23181 12.5017 6.05837C12.4946 6.05125 12.4946 6.05377 12.5017 6.06592C12.5088 6.07825 12.5088 6.07573 12.5017 6.05837C11.8406 7.23892 11.3127 8.42312 10.9181 9.61097C10.5235 10.7988 10.3449 11.9534 10.3824 13.0748ZM13.2095 17.1813C13.4178 17.7886 13.5942 18.4005 13.7387 19.017C13.8831 19.6335 13.9987 20.346 14.0855 21.1545C14.889 20.8682 15.6771 20.4856 16.4499 20.0068C17.2228 19.5282 17.9174 18.9118 18.5337 18.1578C19.15 17.404 19.667 16.4984 20.0845 15.4409C20.502 14.3835 20.7562 13.1389 20.847 11.7073C20.847 11.6771 20.847 11.6771 20.847 11.7073C19.085 11.9717 17.5254 12.5934 16.1681 13.5722C14.8108 14.5512 13.8246 15.7542 13.2095 17.1813Z" fill="#002052"></path></g></g></svg> 