<?xml version="1.0" encoding="UTF-8"?> <svg xmlns="http://www.w3.org/2000/svg" width="25" height="26" viewBox="0 0 25 26" fill="none"><g id="tablet_mac"><mask id="mask0_1093_6559" style="mask-type:alpha" maskUnits="userSpaceOnUse" x="0" y="0" width="25" height="26"><rect id="Bounding box" y="0.5" width="25" height="25" fill="#D9D9D9"></rect></mask><g mask="url(#mask0_1093_6559)"><path id="tablet_mac_2" d="M12.5038 21.9276C12.7237 21.9276 12.9106 21.8508 13.0645 21.6971C13.2183 21.5435 13.2952 21.3556 13.2952 21.1333C13.2952 20.9109 13.2172 20.7228 13.0613 20.569C12.9054 20.4152 12.7175 20.3383 12.4975 20.3383C12.2776 20.3383 12.0907 20.4162 11.9368 20.5721C11.783 20.728 11.7061 20.916 11.7061 21.1359C11.7061 21.3606 11.7841 21.5487 11.94 21.7003C12.0959 21.8518 12.2838 21.9276 12.5038 21.9276ZM5.27565 23.9375C4.82947 23.9375 4.4464 23.7775 4.12643 23.4576C3.80647 23.1376 3.64648 22.7545 3.64648 22.3083V3.69167C3.64648 3.24549 3.80647 2.86241 4.12643 2.54245C4.4464 2.22248 4.82947 2.0625 5.27565 2.0625H19.7257C20.1718 2.0625 20.5549 2.22248 20.8749 2.54245C21.1948 2.86241 21.3548 3.24549 21.3548 3.69167V22.3083C21.3548 22.7545 21.1948 23.1376 20.8749 23.4576C20.5549 23.7775 20.1718 23.9375 19.7257 23.9375H5.27565ZM4.95534 19.644V22.3083C4.95534 22.4017 4.98537 22.4785 5.04544 22.5385C5.10551 22.5986 5.18225 22.6286 5.27565 22.6286H19.7257C19.8191 22.6286 19.8958 22.5986 19.9559 22.5385C20.0159 22.4785 20.046 22.4017 20.046 22.3083V19.644H4.95534ZM4.95534 18.3352H20.046V5.85521H4.95534V18.3352ZM4.95534 4.54662H20.046V3.69167C20.046 3.59826 20.0159 3.52153 19.9559 3.46146C19.8958 3.40139 19.8191 3.37135 19.7257 3.37135H5.27565C5.18225 3.37135 5.10551 3.40139 5.04544 3.46146C4.98537 3.52153 4.95534 3.59826 4.95534 3.69167V4.54662Z" fill="#002052"></path></g></g></svg> 