<?xml version="1.0" encoding="UTF-8"?> <svg xmlns="http://www.w3.org/2000/svg" width="25" height="26" viewBox="0 0 25 26" fill="none"><g id="tv_gen"><mask id="mask0_1093_6568" style="mask-type:alpha" maskUnits="userSpaceOnUse" x="0" y="0" width="25" height="26"><rect id="Bounding box" y="0.5" width="25" height="25" fill="#D9D9D9"></rect></mask><g mask="url(#mask0_1093_6568)"><path id="tv_gen_2" d="M5.82279 19.7708L5.25169 21.3867C5.2293 21.4435 5.19431 21.4889 5.14674 21.5229C5.09918 21.5568 5.04414 21.5737 4.98164 21.5737H4.90299C4.82574 21.5737 4.7582 21.5445 4.70039 21.4862C4.6424 21.4279 4.61341 21.3597 4.61341 21.2818V19.7708H4.23268C3.78824 19.7708 3.4056 19.6104 3.08477 19.2896C2.76393 18.9688 2.60352 18.5861 2.60352 18.1417V6.81667C2.60352 6.37222 2.76393 5.98958 3.08477 5.66875C3.4056 5.34792 3.78824 5.1875 4.23268 5.1875H20.766C21.2105 5.1875 21.5931 5.34792 21.9139 5.66875C22.2348 5.98958 22.3952 6.37222 22.3952 6.81667V18.1417C22.3952 18.5866 22.2348 18.9696 21.9139 19.2906C21.5931 19.6116 21.2105 19.7721 20.766 19.7721H20.3853V21.3078C20.3853 21.3825 20.3598 21.4454 20.3087 21.4966C20.2579 21.548 20.1954 21.5737 20.1212 21.5737H20.0181C19.9566 21.5737 19.9026 21.5569 19.8559 21.5234C19.809 21.4899 19.778 21.4439 19.7629 21.3854L19.2121 19.7708H5.82279ZM4.23268 18.462H20.766C20.8594 18.462 20.9362 18.4319 20.9962 18.3719C21.0563 18.3118 21.0863 18.2351 21.0863 18.1417V6.81667C21.0863 6.72326 21.0563 6.64653 20.9962 6.58646C20.9362 6.52639 20.8594 6.49635 20.766 6.49635H4.23268C4.13928 6.49635 4.06254 6.52639 4.00247 6.58646C3.9424 6.64653 3.91237 6.72326 3.91237 6.81667V18.1417C3.91237 18.2351 3.9424 18.3118 4.00247 18.3719C4.06254 18.4319 4.13928 18.462 4.23268 18.462Z" fill="#002052"></path></g></g></svg> 