<?xml version="1.0" encoding="UTF-8"?> <svg xmlns="http://www.w3.org/2000/svg" width="25" height="26" viewBox="0 0 25 26" fill="none"><g id="videocam"><mask id="mask0_1713_5717" style="mask-type:alpha" maskUnits="userSpaceOnUse" x="0" y="0" width="25" height="26"><rect id="Bounding box" y="0.5" width="25" height="25" fill="#D9D9D9"></rect></mask><g mask="url(#mask0_1713_5717)"><path id="videocam_2" d="M4.48463 20.8125C4.03689 20.8125 3.65347 20.6529 3.33437 20.3336C3.0151 20.0143 2.85547 19.6309 2.85547 19.1833V6.81667C2.85547 6.3691 3.0151 5.98568 3.33437 5.66641C3.65347 5.34714 4.03689 5.1875 4.48463 5.1875H16.851C17.2988 5.1875 17.6823 5.34714 18.0016 5.66641C18.3207 5.98568 18.4802 6.3691 18.4802 6.81667V12.0253L21.4396 9.06589C21.5674 8.93811 21.7171 8.90642 21.8888 8.97083C22.0603 9.03542 22.1461 9.15877 22.1461 9.34089V16.6591C22.1461 16.8412 22.0603 16.9646 21.8888 17.0292C21.7171 17.0936 21.5674 17.0619 21.4396 16.9341L18.4802 13.9682V19.1833C18.4802 19.6309 18.3207 20.0143 18.0016 20.3336C17.6823 20.6529 17.2988 20.8125 16.851 20.8125H4.48463ZM4.48463 19.5036H16.851C16.9446 19.5036 17.0214 19.4736 17.0815 19.4135C17.1416 19.3535 17.1716 19.2767 17.1716 19.1833V6.81667C17.1716 6.72326 17.1416 6.64653 17.0815 6.58646C17.0214 6.52639 16.9446 6.49635 16.851 6.49635H4.48463C4.39123 6.49635 4.31441 6.52639 4.25417 6.58646C4.1941 6.64653 4.16406 6.72326 4.16406 6.81667V19.1833C4.16406 19.2767 4.1941 19.3535 4.25417 19.4135C4.31441 19.4736 4.39123 19.5036 4.48463 19.5036Z" fill="#002052"></path></g></g></svg> 